<svg width="641" height="110" viewBox="0 0 641 110" fill="none" xmlns="http://www.w3.org/2000/svg">
<path d="M5.77524 79.5341C2.14833 72.2572 0.17994 64.2666 0.0117662 56.1376C-0.156407 48.0086 1.47982 39.9435 4.80266 32.5227C8.1255 25.102 13.0523 18.5103 19.2284 13.2221C25.4044 7.93397 32.6761 4.08091 40.52 1.94032C48.3639 -0.200278 56.5848 -0.575147 64.5909 0.842694C72.5971 2.26053 80.1893 5.43581 86.821 10.1399C93.4527 14.8441 98.959 20.9601 102.943 28.0476C106.928 35.1351 109.291 43.0179 109.864 51.1284L96.1477 52.0963C95.7184 46.0134 93.9458 40.1013 90.9575 34.7857C87.9692 29.47 83.8395 24.8831 78.8657 21.355C73.892 17.8269 68.1978 15.4454 62.1932 14.382C56.1886 13.3186 50.0229 13.5998 44.14 15.2052C38.2571 16.8107 32.8033 19.7005 28.1713 23.6666C23.5392 27.6327 19.8441 32.5765 17.352 38.1421C14.8599 43.7076 13.6327 49.7565 13.7588 55.8532C13.885 61.9499 15.3612 67.9429 18.0814 73.4006L5.77524 79.5341Z" fill="white"/>
<path d="M102.686 82.4054C95.4175 95.0525 83.4228 104.294 69.3405 108.098C55.2581 111.901 40.2417 109.954 27.5946 102.686L34.3855 90.8697C43.8987 96.337 55.1942 97.8012 65.787 94.9403C76.3798 92.0795 85.4023 85.1277 90.8697 75.6145L102.686 82.4054Z" fill="white"/>
<path d="M85.9117 35.2791C90.4742 42.4307 92.4159 50.943 91.4058 59.3657C90.3958 67.7884 86.4966 75.6003 80.3725 81.4704C74.2485 87.3404 66.2785 90.9055 57.8206 91.5581C49.3627 92.2106 40.9402 89.9103 33.9882 85.0491C27.0362 80.188 21.9848 73.0666 19.6947 64.8986C17.4046 56.7305 18.0176 48.0211 21.4291 40.2543C24.8406 32.4875 30.8396 26.1438 38.4039 22.3042C45.9683 18.4647 54.63 17.3667 62.9131 19.1974L60.1435 31.7283C54.7595 30.5384 49.1294 31.252 44.2126 33.7478C39.2957 36.2435 35.3964 40.3669 33.1789 45.4153C30.9614 50.4637 30.563 56.1248 32.0516 61.4341C33.5401 66.7433 36.8235 71.3722 41.3423 74.532C45.8612 77.6917 51.3358 79.1869 56.8334 78.7627C62.331 78.3386 67.5115 76.0213 71.4922 72.2058C75.4728 68.3902 78.0073 63.3125 78.6638 57.8377C79.3203 52.363 78.0582 46.83 75.0926 42.1815L85.9117 35.2791Z" fill="white"/>
<circle cx="55.3667" cy="54.6333" r="20.1667" fill="white"/>
<path d="M142.097 85.5V23.6818H165.762C170.229 23.6818 173.942 24.3861 176.9 25.7947C179.878 27.1832 182.102 29.0849 183.571 31.4996C185.06 33.9144 185.805 36.6512 185.805 39.7099C185.805 42.2253 185.322 44.3784 184.356 46.1694C183.39 47.9402 182.092 49.379 180.462 50.4858C178.832 51.5926 177.011 52.3874 174.999 52.8704V53.4741C177.192 53.5948 179.295 54.2689 181.307 55.4964C183.34 56.7038 185 58.4143 186.288 60.6278C187.576 62.8414 188.219 65.5178 188.219 68.657C188.219 71.8565 187.445 74.7341 185.895 77.2898C184.346 79.8253 182.011 81.8275 178.892 83.2965C175.773 84.7655 171.849 85.5 167.12 85.5H142.097ZM153.296 76.1428H165.339C169.404 76.1428 172.332 75.368 174.123 73.8185C175.934 72.2489 176.84 70.2366 176.84 67.7816C176.84 65.9504 176.387 64.3003 175.482 62.8313C174.576 61.3422 173.288 60.1751 171.618 59.3299C169.948 58.4646 167.955 58.032 165.641 58.032H153.296V76.1428ZM153.296 49.9727H164.374C166.305 49.9727 168.046 49.6205 169.596 48.9162C171.145 48.1918 172.362 47.1755 173.248 45.8675C174.153 44.5394 174.606 42.9698 174.606 41.1587C174.606 38.7641 173.761 36.792 172.071 35.2425C170.4 33.6931 167.915 32.9183 164.615 32.9183H153.296V49.9727ZM210.82 86.4357C207.882 86.4357 205.236 85.9125 202.882 84.8661C200.547 83.7996 198.696 82.23 197.328 80.1573C195.979 78.0846 195.305 75.529 195.305 72.4904C195.305 69.8744 195.788 67.7112 196.754 66.0007C197.72 64.2902 199.038 62.9219 200.708 61.8956C202.379 60.8693 204.26 60.0946 206.353 59.5714C208.466 59.0281 210.649 58.6357 212.903 58.3942C215.62 58.1125 217.823 57.8609 219.513 57.6396C221.204 57.3981 222.431 57.0359 223.196 56.5529C223.981 56.0498 224.373 55.2751 224.373 54.2287V54.0476C224.373 51.7737 223.699 50.0129 222.351 48.7653C221.003 47.5176 219.061 46.8938 216.525 46.8938C213.849 46.8938 211.726 47.4774 210.156 48.6445C208.607 49.8117 207.56 51.1901 207.017 52.7798L196.815 51.331C197.619 48.5137 198.948 46.1593 200.799 44.2678C202.65 42.3561 204.914 40.9273 207.59 39.9815C210.267 39.0156 213.225 38.5327 216.465 38.5327C218.698 38.5327 220.922 38.7943 223.136 39.3175C225.349 39.8407 227.371 40.706 229.203 41.9133C231.034 43.1006 232.503 44.7205 233.61 46.7731C234.737 48.8256 235.3 51.3913 235.3 54.4702V85.5H224.796V79.131H224.434C223.769 80.4189 222.834 81.6263 221.626 82.7532C220.439 83.86 218.94 84.7554 217.129 85.4396C215.338 86.1037 213.235 86.4357 210.82 86.4357ZM213.658 78.4066C215.851 78.4066 217.753 77.974 219.362 77.1087C220.972 76.2232 222.21 75.0561 223.075 73.6072C223.961 72.1584 224.403 70.5787 224.403 68.8683V63.4048C224.061 63.6866 223.478 63.9482 222.653 64.1896C221.848 64.4311 220.942 64.6424 219.936 64.8235C218.93 65.0046 217.934 65.1656 216.948 65.3065C215.962 65.4473 215.106 65.5681 214.382 65.6687C212.752 65.89 211.293 66.2522 210.005 66.7553C208.717 67.2584 207.701 67.9627 206.957 68.8683C206.212 69.7537 205.84 70.9007 205.84 72.3093C205.84 74.3216 206.574 75.8409 208.043 76.8672C209.512 77.8935 211.384 78.4066 213.658 78.4066ZM246.287 85.5V39.1364H256.882V46.8636H257.365C258.21 44.1873 259.659 42.1246 261.712 40.6758C263.784 39.2068 266.149 38.4723 268.805 38.4723C269.409 38.4723 270.083 38.5025 270.827 38.5629C271.592 38.6031 272.226 38.6735 272.729 38.7741V48.8256C272.266 48.6647 271.532 48.5238 270.525 48.4031C269.539 48.2622 268.584 48.1918 267.658 48.1918C265.666 48.1918 263.875 48.6244 262.285 49.4897C260.715 50.3349 259.478 51.5121 258.572 53.0213C257.667 54.5305 257.214 56.2712 257.214 58.2433V85.5H246.287ZM298.243 103.852C294.319 103.852 290.948 103.319 288.131 102.252C285.313 101.206 283.05 99.7975 281.339 98.0266C279.629 96.2558 278.441 94.2938 277.777 92.1406L287.618 89.756C288.06 90.6616 288.704 91.5571 289.549 92.4425C290.395 93.348 291.531 94.0926 292.96 94.6761C294.409 95.2798 296.23 95.5817 298.424 95.5817C301.523 95.5817 304.088 94.8271 306.121 93.3178C308.153 91.8287 309.169 89.3737 309.169 85.9528V77.169H308.626C308.063 78.2959 307.238 79.453 306.151 80.6403C305.084 81.8275 303.666 82.8236 301.895 83.6286C300.144 84.4335 297.941 84.8359 295.284 84.8359C291.723 84.8359 288.493 84.0008 285.595 82.3306C282.718 80.6403 280.424 78.1249 278.713 74.7844C277.023 71.4239 276.178 67.2182 276.178 62.1673C276.178 57.0761 277.023 52.7798 278.713 49.2784C280.424 45.7569 282.728 43.0906 285.625 41.2795C288.523 39.4483 291.753 38.5327 295.315 38.5327C298.031 38.5327 300.265 38.9955 302.016 39.9212C303.786 40.8267 305.195 41.9234 306.241 43.2113C307.288 44.479 308.083 45.6764 308.626 46.8033H309.23V39.1364H320.006V86.2546C320.006 90.2189 319.06 93.4989 317.168 96.0948C315.277 98.6907 312.691 100.633 309.411 101.92C306.131 103.208 302.408 103.852 298.243 103.852ZM298.333 76.2635C300.647 76.2635 302.619 75.7 304.249 74.5732C305.879 73.4463 307.117 71.8263 307.962 69.7134C308.807 67.6005 309.23 65.065 309.23 62.1069C309.23 59.189 308.807 56.6334 307.962 54.44C307.137 52.2466 305.909 50.5462 304.279 49.3388C302.67 48.1113 300.688 47.4975 298.333 47.4975C295.898 47.4975 293.866 48.1314 292.236 49.3991C290.606 50.6669 289.378 52.4076 288.553 54.6211C287.728 56.8145 287.316 59.3098 287.316 62.1069C287.316 64.9442 287.728 67.4295 288.553 69.5625C289.398 71.6754 290.636 73.3255 292.266 74.5128C293.916 75.6799 295.938 76.2635 298.333 76.2635ZM344.546 86.4357C341.608 86.4357 338.962 85.9125 336.607 84.8661C334.273 83.7996 332.422 82.23 331.053 80.1573C329.705 78.0846 329.031 75.529 329.031 72.4904C329.031 69.8744 329.514 67.7112 330.48 66.0007C331.446 64.2902 332.764 62.9219 334.434 61.8956C336.104 60.8693 337.986 60.0946 340.078 59.5714C342.191 59.0281 344.375 58.6357 346.629 58.3942C349.345 58.1125 351.549 57.8609 353.239 57.6396C354.929 57.3981 356.157 57.0359 356.922 56.5529C357.706 56.0498 358.099 55.2751 358.099 54.2287V54.0476C358.099 51.7737 357.425 50.0129 356.076 48.7653C354.728 47.5176 352.786 46.8938 350.251 46.8938C347.574 46.8938 345.451 47.4774 343.882 48.6445C342.332 49.8117 341.286 51.1901 340.743 52.7798L330.54 51.331C331.345 48.5137 332.673 46.1593 334.525 44.2678C336.376 42.3561 338.64 40.9273 341.316 39.9815C343.992 39.0156 346.951 38.5327 350.19 38.5327C352.424 38.5327 354.648 38.7943 356.861 39.3175C359.075 39.8407 361.097 40.706 362.928 41.9133C364.759 43.1006 366.228 44.7205 367.335 46.7731C368.462 48.8256 369.026 51.3913 369.026 54.4702V85.5H358.521V79.131H358.159C357.495 80.4189 356.559 81.6263 355.352 82.7532C354.165 83.86 352.665 84.7554 350.854 85.4396C349.063 86.1037 346.961 86.4357 344.546 86.4357ZM347.383 78.4066C349.577 78.4066 351.478 77.974 353.088 77.1087C354.698 76.2232 355.935 75.0561 356.801 73.6072C357.686 72.1584 358.129 70.5787 358.129 68.8683V63.4048C357.787 63.6866 357.203 63.9482 356.378 64.1896C355.573 64.4311 354.668 64.6424 353.662 64.8235C352.655 65.0046 351.659 65.1656 350.673 65.3065C349.687 65.4473 348.832 65.5681 348.108 65.6687C346.478 65.89 345.019 66.2522 343.731 66.7553C342.443 67.2584 341.427 67.9627 340.682 68.8683C339.938 69.7537 339.565 70.9007 339.565 72.3093C339.565 74.3216 340.3 75.8409 341.769 76.8672C343.238 77.8935 345.109 78.4066 347.383 78.4066ZM380.013 85.5V39.1364H390.94V85.5H380.013ZM385.506 32.5561C383.776 32.5561 382.287 31.9826 381.039 30.8356C379.791 29.6684 379.168 28.2699 379.168 26.6399C379.168 24.9898 379.791 23.5913 381.039 22.4442C382.287 21.2771 383.776 20.6935 385.506 20.6935C387.257 20.6935 388.746 21.2771 389.974 22.4442C391.221 23.5913 391.845 24.9898 391.845 26.6399C391.845 28.2699 391.221 29.6684 389.974 30.8356C388.746 31.9826 387.257 32.5561 385.506 32.5561ZM413.103 58.3338V85.5H402.176V39.1364H412.62V47.0146H413.163C414.23 44.4187 415.93 42.3561 418.264 40.8267C420.619 39.2973 423.526 38.5327 426.988 38.5327C430.187 38.5327 432.974 39.2169 435.349 40.5852C437.743 41.9536 439.595 43.9357 440.903 46.5316C442.231 49.1275 442.885 52.2768 442.865 55.9794V85.5H431.938V57.6697C431.938 54.5708 431.133 52.146 429.523 50.3952C427.933 48.6445 425.73 47.7692 422.913 47.7692C421.001 47.7692 419.301 48.1918 417.812 49.0369C416.343 49.862 415.185 51.0593 414.34 52.6289C413.515 54.1985 413.103 56.1001 413.103 58.3338ZM463.541 85.5L450.441 39.1364H461.579L469.729 71.7358H470.152L478.483 39.1364H489.5L497.831 71.5547H498.284L506.313 39.1364H517.481L504.351 85.5H492.971L484.278 54.1683H483.644L474.951 85.5H463.541ZM538.452 86.4357C535.514 86.4357 532.868 85.9125 530.513 84.8661C528.179 83.7996 526.328 82.23 524.96 80.1573C523.611 78.0846 522.937 75.529 522.937 72.4904C522.937 69.8744 523.42 67.7112 524.386 66.0007C525.352 64.2902 526.67 62.9219 528.34 61.8956C530.01 60.8693 531.892 60.0946 533.985 59.5714C536.098 59.0281 538.281 58.6357 540.535 58.3942C543.251 58.1125 545.455 57.8609 547.145 57.6396C548.836 57.3981 550.063 57.0359 550.828 56.5529C551.613 56.0498 552.005 55.2751 552.005 54.2287V54.0476C552.005 51.7737 551.331 50.0129 549.983 48.7653C548.634 47.5176 546.692 46.8938 544.157 46.8938C541.481 46.8938 539.358 47.4774 537.788 48.6445C536.239 49.8117 535.192 51.1901 534.649 52.7798L524.446 51.331C525.251 48.5137 526.579 46.1593 528.431 44.2678C530.282 42.3561 532.546 40.9273 535.222 39.9815C537.899 39.0156 540.857 38.5327 544.097 38.5327C546.33 38.5327 548.554 38.7943 550.767 39.3175C552.981 39.8407 555.003 40.706 556.835 41.9133C558.666 43.1006 560.135 44.7205 561.241 46.7731C562.368 48.8256 562.932 51.3913 562.932 54.4702V85.5H552.428V79.131H552.065C551.401 80.4189 550.466 81.6263 549.258 82.7532C548.071 83.86 546.572 84.7554 544.761 85.4396C542.97 86.1037 540.867 86.4357 538.452 86.4357ZM541.289 78.4066C543.483 78.4066 545.384 77.974 546.994 77.1087C548.604 76.2232 549.842 75.0561 550.707 73.6072C551.592 72.1584 552.035 70.5787 552.035 68.8683V63.4048C551.693 63.6866 551.109 63.9482 550.284 64.1896C549.48 64.4311 548.574 64.6424 547.568 64.8235C546.562 65.0046 545.566 65.1656 544.58 65.3065C543.594 65.4473 542.738 65.5681 542.014 65.6687C540.384 65.89 538.925 66.2522 537.637 66.7553C536.349 67.2584 535.333 67.9627 534.588 68.8683C533.844 69.7537 533.472 70.9007 533.472 72.3093C533.472 74.3216 534.206 75.8409 535.675 76.8672C537.144 77.8935 539.016 78.4066 541.289 78.4066ZM584.846 23.6818V85.5H573.919V23.6818H584.846ZM616.608 86.4055C611.959 86.4055 607.945 85.4396 604.564 83.5078C601.203 81.5559 598.618 78.799 596.807 75.2372C594.995 71.6553 594.09 67.4395 594.09 62.5898C594.09 57.8207 594.995 53.6351 596.807 50.033C598.638 46.4109 601.193 43.5936 604.473 41.5813C607.754 39.5489 611.607 38.5327 616.034 38.5327C618.892 38.5327 621.588 38.9955 624.124 39.9212C626.679 40.8267 628.933 42.2353 630.885 44.147C632.857 46.0587 634.407 48.4936 635.533 51.4517C636.66 54.3897 637.224 57.8911 637.224 61.956V65.3065H599.221V57.9414H626.75C626.73 55.8486 626.277 53.9872 625.391 52.3572C624.506 50.7071 623.268 49.4092 621.679 48.4634C620.109 47.5176 618.278 47.0447 616.185 47.0447C613.951 47.0447 611.989 47.5881 610.299 48.6747C608.609 49.7412 607.291 51.1499 606.345 52.9006C605.419 54.6312 604.946 56.5328 604.926 58.6055V65.0348C604.926 67.7313 605.419 70.0455 606.405 71.9773C607.391 73.889 608.77 75.358 610.541 76.3842C612.311 77.3904 614.384 77.8935 616.759 77.8935C618.348 77.8935 619.787 77.6721 621.075 77.2294C622.363 76.7666 623.48 76.0924 624.426 75.207C625.371 74.3216 626.086 73.2249 626.569 71.9169L636.771 73.0639C636.127 75.7604 634.9 78.1148 633.089 80.1271C631.298 82.1193 629.004 83.6688 626.206 84.7756C623.409 85.8622 620.21 86.4055 616.608 86.4055Z" fill="white"/>
</svg>
